<?xml version="1.0" encoding="utf-8"?>
<!DOCTYPE svg PUBLIC "-//W3C//DTD SVG 1.1//EN" "http://www.w3.org/Graphics/SVG/1.1/DTD/svg11.dtd">
<!-- Generated by graphviz version 5.0.0 (20220707.1540)
 -->
<!-- Title: stones Pages: 1 -->
<svg height="886pt" viewBox="0.00 0.00 844.5 886.0" width="845pt" xmlns="http://www.w3.org/2000/svg" xmlns:xlink="http://www.w3.org/1999/xlink">
 <g class="graph" id="graph0" transform="scale(1 1) rotate(0) translate(4 832)">
  <title>
   stones
  </title>
  <polygon fill="white" points="-4,4 -4,-832 790.5,-832 790.5,4 -4,4" stroke="transparent"/>
  <!-- Codeforces -->
  <g class="node" id="node1">
   <title>
    Codeforces
   </title>
   <g id="a_node1">
    <a target="_parent" xlink:href="https://codeforces.com/problemset" xlink:title="Codeforces(14)">
     <polygon fill="orangered" points="467,-828 357,-828 357,-792 467,-792 467,-828" stroke="lightgrey"/>
     <text fill="white" font-family="Microsoft YaHei" font-size="14.00" text-anchor="middle" x="412" y="-806.3">
      Codeforces(14)
     </text>
    </a>
   </g>
  </g>
  <!-- 基础题 -->
  <g class="node" id="node2">
   <title>
    基础题
   </title>
   <polygon fill="lightslategray" points="185,-756 111,-756 111,-720 185,-720 185,-756" stroke="lightgrey"/>
   <text fill="white" font-family="Microsoft YaHei" font-size="12.00" text-anchor="middle" x="148" y="-734.9">
    基础题(10)
   </text>
  </g>
  <!-- Codeforces&#45;&gt;基础题 -->
  <g class="edge" id="edge1">
   <title>
    Codeforces-&gt;基础题
   </title>
   <path d="M356.98,-794.41C309.07,-781.71 240.37,-763.49 194.99,-751.46" fill="none" stroke="lightgrey"/>
   <polygon fill="lightgrey" points="195.68,-748.02 185.12,-748.84 193.89,-754.79 195.68,-748.02" stroke="lightgrey"/>
  </g>
  <!-- Maths -->
  <g class="node" id="node13">
   <title>
    Maths
   </title>
   <polygon fill="lightslategray" points="299.5,-756 236.5,-756 236.5,-720 299.5,-720 299.5,-756" stroke="lightgrey"/>
   <text fill="white" font-family="Microsoft YaHei" font-size="12.00" text-anchor="middle" x="268" y="-734.9">
    Maths(1)
   </text>
  </g>
  <!-- Codeforces&#45;&gt;Maths -->
  <g class="edge" id="edge12">
   <title>
    Codeforces-&gt;Maths
   </title>
   <path d="M376.77,-791.88C356.32,-781.93 330.45,-769.36 309.08,-758.97" fill="none" stroke="lightgrey"/>
   <polygon fill="lightgrey" points="310.44,-755.74 299.91,-754.51 307.38,-762.03 310.44,-755.74" stroke="lightgrey"/>
  </g>
  <!-- 数论&#45;扩展欧几里得算法 -->
  <g class="node" id="node15">
   <title>
    数论-扩展欧几里得算法
   </title>
   <polygon fill="lightslategray" points="489.5,-756 334.5,-756 334.5,-720 489.5,-720 489.5,-756" stroke="lightgrey"/>
   <text fill="white" font-family="Microsoft YaHei" font-size="12.00" text-anchor="middle" x="412" y="-734.9">
    数论-扩展欧几里得算法(1)
   </text>
  </g>
  <!-- Codeforces&#45;&gt;数论&#45;扩展欧几里得算法 -->
  <g class="edge" id="edge14">
   <title>
    Codeforces-&gt;数论-扩展欧几里得算法
   </title>
   <path d="M412,-791.7C412,-783.98 412,-774.71 412,-766.11" fill="none" stroke="lightgrey"/>
   <polygon fill="lightgrey" points="415.5,-766.1 412,-756.1 408.5,-766.1 415.5,-766.1" stroke="lightgrey"/>
  </g>
  <!-- 动态规划&#45;树形DP -->
  <g class="node" id="node17">
   <title>
    动态规划-树形DP
   </title>
   <polygon fill="lightslategray" points="632,-756 508,-756 508,-720 632,-720 632,-756" stroke="lightgrey"/>
   <text fill="white" font-family="Microsoft YaHei" font-size="12.00" text-anchor="middle" x="570" y="-734.9">
    动态规划-树形DP(1)
   </text>
  </g>
  <!-- Codeforces&#45;&gt;动态规划&#45;树形DP -->
  <g class="edge" id="edge16">
   <title>
    Codeforces-&gt;动态规划-树形DP
   </title>
   <path d="M450.65,-791.88C472.25,-782.31 499.35,-770.3 522.27,-760.15" fill="none" stroke="lightgrey"/>
   <polygon fill="lightgrey" points="523.75,-763.32 531.47,-756.07 520.91,-756.92 523.75,-763.32" stroke="lightgrey"/>
  </g>
  <!-- 模拟题 -->
  <g class="node" id="node19">
   <title>
    模拟题
   </title>
   <polygon fill="lightslategray" points="731.5,-756 664.5,-756 664.5,-720 731.5,-720 731.5,-756" stroke="lightgrey"/>
   <text fill="white" font-family="Microsoft YaHei" font-size="12.00" text-anchor="middle" x="698" y="-734.9">
    模拟题(1)
   </text>
  </g>
  <!-- Codeforces&#45;&gt;模拟题 -->
  <g class="edge" id="edge18">
   <title>
    Codeforces-&gt;模拟题
   </title>
   <path d="M467.3,-797.22C513.83,-787.06 582.02,-771.6 641,-756 645.39,-754.84 649.95,-753.58 654.49,-752.28" fill="none" stroke="lightgrey"/>
   <polygon fill="lightgrey" points="655.72,-755.57 664.34,-749.42 653.76,-748.85 655.72,-755.57" stroke="lightgrey"/>
  </g>
  <!-- 1A -->
  <g class="node" id="node3">
   <title>
    1A
   </title>
   <g id="a_node3">
    <a target="_parent" xlink:href="https://codeforces.com/problemset/problem/1/A" xlink:title="1A. Theatre Square">
     <polygon fill="none" points="158.5,-684 37.5,-684 37.5,-648 158.5,-648 158.5,-684" stroke="greenyellow"/>
     <text font-family="Microsoft YaHei" font-size="12.00" text-anchor="middle" x="98" y="-662.9">
      1A. Theatre Square
     </text>
    </a>
   </g>
   <g transform="translate(150.5, -690.0) scale(0.3)">
    <circle cx="24" cy="24" fill="#4caf50" r="21"/>
    <polygon fill="#ccff90" points="34.6,14.6 21,28.2 15.4,22.6 12.6,25.4 21,33.8 37.4,17.4"/>
   </g>
  </g>
  <!-- 基础题&#45;&gt;1A -->
  <g class="edge" id="edge2">
   <title>
    基础题-&gt;1A
   </title>
   <path d="M135.64,-719.7C129.77,-711.47 122.63,-701.48 116.16,-692.42" fill="none" stroke="lightgrey"/>
   <polygon fill="lightgrey" points="118.88,-690.21 110.22,-684.1 113.18,-694.28 118.88,-690.21" stroke="lightgrey"/>
  </g>
  <!-- 4A -->
  <g class="node" id="node4">
   <title>
    4A
   </title>
   <g id="a_node4">
    <a target="_parent" xlink:href="https://codeforces.com/problemset/problem/4/A" xlink:title="4A. Watermelon">
     <polygon fill="none" points="149,-612 47,-612 47,-576 149,-576 149,-612" stroke="greenyellow"/>
     <text font-family="Microsoft YaHei" font-size="12.00" text-anchor="middle" x="98" y="-590.9">
      4A. Watermelon
     </text>
    </a>
   </g>
   <g transform="translate(141.0, -618.0) scale(0.3)">
    <circle cx="24" cy="24" fill="#4caf50" r="21"/>
    <polygon fill="#ccff90" points="34.6,14.6 21,28.2 15.4,22.6 12.6,25.4 21,33.8 37.4,17.4"/>
   </g>
  </g>
  <!-- 1A&#45;&gt;4A -->
  <g class="edge" id="edge3">
   <title>
    1A-&gt;4A
   </title>
   <path d="M98,-647.7C98,-639.98 98,-630.71 98,-622.11" fill="none" stroke="lightgrey"/>
   <polygon fill="lightgrey" points="101.5,-622.1 98,-612.1 94.5,-622.1 101.5,-622.1" stroke="lightgrey"/>
  </g>
  <!-- 5A -->
  <g class="node" id="node5">
   <title>
    5A
   </title>
   <g id="a_node5">
    <a target="_parent" xlink:href="https://codeforces.com/problemset/problem/5/A" xlink:title="5A. Chat Servers Outgoing Traffic">
     <polygon fill="none" points="195,-540 1,-540 1,-504 195,-504 195,-540" stroke="greenyellow"/>
     <text font-family="Microsoft YaHei" font-size="12.00" text-anchor="middle" x="98" y="-518.9">
      5A. Chat Servers Outgoing Traffic
     </text>
    </a>
   </g>
   <g transform="translate(187.0, -546.0) scale(0.3)">
    <circle cx="24" cy="24" fill="#4caf50" r="21"/>
    <polygon fill="#ccff90" points="34.6,14.6 21,28.2 15.4,22.6 12.6,25.4 21,33.8 37.4,17.4"/>
   </g>
  </g>
  <!-- 4A&#45;&gt;5A -->
  <g class="edge" id="edge4">
   <title>
    4A-&gt;5A
   </title>
   <path d="M98,-575.7C98,-567.98 98,-558.71 98,-550.11" fill="none" stroke="lightgrey"/>
   <polygon fill="lightgrey" points="101.5,-550.1 98,-540.1 94.5,-550.1 101.5,-550.1" stroke="lightgrey"/>
  </g>
  <!-- 6A -->
  <g class="node" id="node6">
   <title>
    6A
   </title>
   <g id="a_node6">
    <a target="_parent" xlink:href="https://codeforces.com/problemset/problem/6/A" xlink:title="6A. Triangle">
     <polygon fill="none" points="138.5,-468 57.5,-468 57.5,-432 138.5,-432 138.5,-468" stroke="greenyellow"/>
     <text font-family="Microsoft YaHei" font-size="12.00" text-anchor="middle" x="98" y="-446.9">
      6A. Triangle
     </text>
    </a>
   </g>
   <g transform="translate(130.5, -474.0) scale(0.3)">
    <circle cx="24" cy="24" fill="#4caf50" r="21"/>
    <polygon fill="#ccff90" points="34.6,14.6 21,28.2 15.4,22.6 12.6,25.4 21,33.8 37.4,17.4"/>
   </g>
  </g>
  <!-- 5A&#45;&gt;6A -->
  <g class="edge" id="edge5">
   <title>
    5A-&gt;6A
   </title>
   <path d="M98,-503.7C98,-495.98 98,-486.71 98,-478.11" fill="none" stroke="lightgrey"/>
   <polygon fill="lightgrey" points="101.5,-478.1 98,-468.1 94.5,-478.1 101.5,-478.1" stroke="lightgrey"/>
  </g>
  <!-- 750A -->
  <g class="node" id="node7">
   <title>
    750A
   </title>
   <g id="a_node7">
    <a target="_parent" xlink:href="https://codeforces.com/problemset/problem/750/A" xlink:title="750A. New Year and Hurry">
     <polygon fill="none" points="177,-396 19,-396 19,-360 177,-360 177,-396" stroke="greenyellow"/>
     <text font-family="Microsoft YaHei" font-size="12.00" text-anchor="middle" x="98" y="-374.9">
      750A. New Year and Hurry
     </text>
    </a>
   </g>
   <g transform="translate(169.0, -402.0) scale(0.3)">
    <circle cx="24" cy="24" fill="#4caf50" r="21"/>
    <polygon fill="#ccff90" points="34.6,14.6 21,28.2 15.4,22.6 12.6,25.4 21,33.8 37.4,17.4"/>
   </g>
  </g>
  <!-- 6A&#45;&gt;750A -->
  <g class="edge" id="edge6">
   <title>
    6A-&gt;750A
   </title>
   <path d="M98,-431.7C98,-423.98 98,-414.71 98,-406.11" fill="none" stroke="lightgrey"/>
   <polygon fill="lightgrey" points="101.5,-406.1 98,-396.1 94.5,-406.1 101.5,-406.1" stroke="lightgrey"/>
  </g>
  <!-- 784E -->
  <g class="node" id="node8">
   <title>
    784E
   </title>
   <g id="a_node8">
    <a target="_parent" xlink:href="https://codeforces.com/problemset/problem/784/E" xlink:title="784E. Twisted Circuit">
     <polygon fill="none" points="162.5,-324 33.5,-324 33.5,-288 162.5,-288 162.5,-324" stroke="orange"/>
     <text font-family="Microsoft YaHei" font-size="12.00" text-anchor="middle" x="98" y="-302.9">
      784E. Twisted Circuit
     </text>
    </a>
   </g>
   <g transform="translate(154.5, -330.0) scale(0.3)">
    <circle cx="24" cy="24" fill="#4caf50" r="21"/>
    <polygon fill="#ccff90" points="34.6,14.6 21,28.2 15.4,22.6 12.6,25.4 21,33.8 37.4,17.4"/>
   </g>
  </g>
  <!-- 750A&#45;&gt;784E -->
  <g class="edge" id="edge7">
   <title>
    750A-&gt;784E
   </title>
   <path d="M98,-359.7C98,-351.98 98,-342.71 98,-334.11" fill="none" stroke="lightgrey"/>
   <polygon fill="lightgrey" points="101.5,-334.1 98,-324.1 94.5,-334.1 101.5,-334.1" stroke="lightgrey"/>
  </g>
  <!-- 785A -->
  <g class="node" id="node9">
   <title>
    785A
   </title>
   <g id="a_node9">
    <a target="_parent" xlink:href="https://codeforces.com/problemset/problem/785/A" xlink:title="785A. Anton and Polyhedrons">
     <polygon fill="none" points="186,-252 10,-252 10,-216 186,-216 186,-252" stroke="greenyellow"/>
     <text font-family="Microsoft YaHei" font-size="12.00" text-anchor="middle" x="98" y="-230.9">
      785A. Anton and Polyhedrons
     </text>
    </a>
   </g>
   <g transform="translate(178.0, -258.0) scale(0.3)">
    <circle cx="24" cy="24" fill="#4caf50" r="21"/>
    <polygon fill="#ccff90" points="34.6,14.6 21,28.2 15.4,22.6 12.6,25.4 21,33.8 37.4,17.4"/>
   </g>
  </g>
  <!-- 784E&#45;&gt;785A -->
  <g class="edge" id="edge8">
   <title>
    784E-&gt;785A
   </title>
   <path d="M98,-287.7C98,-279.98 98,-270.71 98,-262.11" fill="none" stroke="lightgrey"/>
   <polygon fill="lightgrey" points="101.5,-262.1 98,-252.1 94.5,-262.1 101.5,-262.1" stroke="lightgrey"/>
  </g>
  <!-- 802M -->
  <g class="node" id="node10">
   <title>
    802M
   </title>
   <g id="a_node10">
    <a target="_parent" xlink:href="https://codeforces.com/problemset/problem/802/M" xlink:title="802M. April Fools' Problem (easy)">
     <polygon fill="none" points="196,-180 0,-180 0,-144 196,-144 196,-180" stroke="orange"/>
     <text font-family="Microsoft YaHei" font-size="12.00" text-anchor="middle" x="98" y="-158.9">
      802M. April Fools' Problem (easy)
     </text>
    </a>
   </g>
   <g transform="translate(188.0, -186.0) scale(0.3)">
    <circle cx="24" cy="24" fill="#4caf50" r="21"/>
    <polygon fill="#ccff90" points="34.6,14.6 21,28.2 15.4,22.6 12.6,25.4 21,33.8 37.4,17.4"/>
   </g>
  </g>
  <!-- 785A&#45;&gt;802M -->
  <g class="edge" id="edge9">
   <title>
    785A-&gt;802M
   </title>
   <path d="M98,-215.7C98,-207.98 98,-198.71 98,-190.11" fill="none" stroke="lightgrey"/>
   <polygon fill="lightgrey" points="101.5,-190.1 98,-180.1 94.5,-190.1 101.5,-190.1" stroke="lightgrey"/>
  </g>
  <!-- 855A -->
  <g class="node" id="node11">
   <title>
    855A
   </title>
   <g id="a_node11">
    <a target="_parent" xlink:href="https://codeforces.com/problemset/problem/855/A" xlink:title="855A. Tom Riddle's Diary">
     <polygon fill="none" points="174,-108 22,-108 22,-72 174,-72 174,-108" stroke="greenyellow"/>
     <text font-family="Microsoft YaHei" font-size="12.00" text-anchor="middle" x="98" y="-86.9">
      855A. Tom Riddle's Diary
     </text>
    </a>
   </g>
   <g transform="translate(166.0, -114.0) scale(0.3)">
    <circle cx="24" cy="24" fill="#4caf50" r="21"/>
    <polygon fill="#ccff90" points="34.6,14.6 21,28.2 15.4,22.6 12.6,25.4 21,33.8 37.4,17.4"/>
   </g>
  </g>
  <!-- 802M&#45;&gt;855A -->
  <g class="edge" id="edge10">
   <title>
    802M-&gt;855A
   </title>
   <path d="M98,-143.7C98,-135.98 98,-126.71 98,-118.11" fill="none" stroke="lightgrey"/>
   <polygon fill="lightgrey" points="101.5,-118.1 98,-108.1 94.5,-118.1 101.5,-118.1" stroke="lightgrey"/>
  </g>
  <!-- 1157B -->
  <g class="node" id="node12">
   <title>
    1157B
   </title>
   <g id="a_node12">
    <a target="_parent" xlink:href="https://codeforces.com/problemset/problem/1157/B" xlink:title="1157B. Long Number">
     <polygon fill="none" points="162.5,-36 33.5,-36 33.5,0 162.5,0 162.5,-36" stroke="orange"/>
     <text font-family="Microsoft YaHei" font-size="12.00" text-anchor="middle" x="98" y="-14.9">
      1157B. Long Number
     </text>
    </a>
   </g>
   <g transform="translate(154.5, -42.0) scale(0.3)">
    <circle cx="24" cy="24" fill="#4caf50" r="21"/>
    <polygon fill="#ccff90" points="34.6,14.6 21,28.2 15.4,22.6 12.6,25.4 21,33.8 37.4,17.4"/>
   </g>
  </g>
  <!-- 855A&#45;&gt;1157B -->
  <g class="edge" id="edge11">
   <title>
    855A-&gt;1157B
   </title>
   <path d="M98,-71.7C98,-63.98 98,-54.71 98,-46.11" fill="none" stroke="lightgrey"/>
   <polygon fill="lightgrey" points="101.5,-46.1 98,-36.1 94.5,-46.1 101.5,-46.1" stroke="lightgrey"/>
  </g>
  <!-- 409H -->
  <g class="node" id="node14">
   <title>
    409H
   </title>
   <g id="a_node14">
    <a target="_parent" xlink:href="https://codeforces.com/problemset/problem/409/H" xlink:title="409H. A + B Strikes Back">
     <polygon fill="none" points="327,-684 177,-684 177,-648 327,-648 327,-684" stroke="orange"/>
     <text font-family="Microsoft YaHei" font-size="12.00" text-anchor="middle" x="252" y="-662.9">
      409H. A + B Strikes Back
     </text>
    </a>
   </g>
   <g transform="translate(319.0, -690.0) scale(0.3)">
    <circle cx="24" cy="24" fill="#4caf50" r="21"/>
    <polygon fill="#ccff90" points="34.6,14.6 21,28.2 15.4,22.6 12.6,25.4 21,33.8 37.4,17.4"/>
   </g>
  </g>
  <!-- Maths&#45;&gt;409H -->
  <g class="edge" id="edge13">
   <title>
    Maths-&gt;409H
   </title>
   <path d="M264.04,-719.7C262.28,-711.98 260.16,-702.71 258.2,-694.11" fill="none" stroke="lightgrey"/>
   <polygon fill="lightgrey" points="261.55,-693.07 255.91,-684.1 254.73,-694.63 261.55,-693.07" stroke="lightgrey"/>
  </g>
  <!-- 1478D -->
  <g class="node" id="node16">
   <title>
    1478D
   </title>
   <g id="a_node16">
    <a target="_parent" xlink:href="https://codeforces.com/problemset/problem/1477/A" xlink:title="1478D. Nezzar and Board">
     <polygon fill="none" points="500.5,-684 345.5,-684 345.5,-648 500.5,-648 500.5,-684" stroke="orange"/>
     <text font-family="Microsoft YaHei" font-size="12.00" text-anchor="middle" x="423" y="-662.9">
      1478D. Nezzar and Board
     </text>
    </a>
   </g>
  </g>
  <!-- 数论&#45;扩展欧几里得算法&#45;&gt;1478D -->
  <g class="edge" id="edge15">
   <title>
    数论-扩展欧几里得算法-&gt;1478D
   </title>
   <path d="M414.72,-719.7C415.93,-711.98 417.39,-702.71 418.74,-694.11" fill="none" stroke="lightgrey"/>
   <polygon fill="lightgrey" points="422.22,-694.53 420.31,-684.1 415.3,-693.44 422.22,-694.53" stroke="lightgrey"/>
  </g>
  <!-- 1156D -->
  <g class="node" id="node18">
   <title>
    1156D
   </title>
   <g id="a_node18">
    <a target="_parent" xlink:href="https://codeforces.com/problemset/problem/1156/D" xlink:title="1156D. 0-1-Tree">
     <polygon fill="none" points="621,-684 519,-684 519,-648 621,-648 621,-684" stroke="red"/>
     <text font-family="Microsoft YaHei" font-size="12.00" text-anchor="middle" x="570" y="-662.9">
      1156D. 0-1-Tree
     </text>
    </a>
   </g>
  </g>
  <!-- 动态规划&#45;树形DP&#45;&gt;1156D -->
  <g class="edge" id="edge17">
   <title>
    动态规划-树形DP-&gt;1156D
   </title>
   <path d="M570,-719.7C570,-711.98 570,-702.71 570,-694.11" fill="none" stroke="lightgrey"/>
   <polygon fill="lightgrey" points="573.5,-694.1 570,-684.1 566.5,-694.1 573.5,-694.1" stroke="lightgrey"/>
  </g>
  <!-- 1493B -->
  <g class="node" id="node20">
   <title>
    1493B
   </title>
   <g id="a_node20">
    <a target="_parent" xlink:href="https://codeforces.com/problemset/problem/1493/B" xlink:title="1493B. Planet Lapituletti">
     <polygon fill="none" points="786.5,-684 639.5,-684 639.5,-648 786.5,-648 786.5,-684" stroke="orange"/>
     <text font-family="Microsoft YaHei" font-size="12.00" text-anchor="middle" x="713" y="-662.9">
      1493B. Planet Lapituletti
     </text>
    </a>
   </g>
  </g>
  <!-- 模拟题&#45;&gt;1493B -->
  <g class="edge" id="edge19">
   <title>
    模拟题-&gt;1493B
   </title>
   <path d="M701.71,-719.7C703.36,-711.98 705.35,-702.71 707.19,-694.11" fill="none" stroke="lightgrey"/>
   <polygon fill="lightgrey" points="710.66,-694.62 709.33,-684.1 703.82,-693.15 710.66,-694.62" stroke="lightgrey"/>
  </g>
  <g class="key">
   <defs>
    <filter height="1.2" id="solid" width="1.2" x="-0.1" y="-0.1">
     <feFlood flood-color="#ccff90" result="bg"/>
     <feMerge>
      <feMergeNode in="bg"/>
      <feMergeNode in="SourceGraphic"/>
     </feMerge>
    </filter>
   </defs>
   <text filter="url(#solid)" font-family="Microsoft YaHei" font-size="10.00" text-anchor="middle" x="713.0" y="-643.0">
    时间模拟
   </text>
  </g>
 </g>
</svg>