<?xml version="1.0" encoding="utf-8"?>
<!DOCTYPE svg PUBLIC "-//W3C//DTD SVG 1.1//EN" "http://www.w3.org/Graphics/SVG/1.1/DTD/svg11.dtd">
<!-- Generated by graphviz version 5.0.0 (20220707.1540)
 -->
<!-- Title: stones Pages: 1 -->
<svg height="814pt" viewBox="0.00 0.00 929.0 814.0" width="929pt" xmlns="http://www.w3.org/2000/svg" xmlns:xlink="http://www.w3.org/1999/xlink">
 <g class="graph" id="graph0" transform="scale(1 1) rotate(0) translate(4 760)">
  <title>
   stones
  </title>
  <polygon fill="white" points="-4,4 -4,-760 875,-760 875,4 -4,4" stroke="transparent"/>
  <!-- Leetcode&#45;链表 -->
  <g class="node" id="node1">
   <title>
    Leetcode-链表
   </title>
   <g id="a_node1">
    <a target="_parent" xlink:href="https://leetcode-cn.com/tag/linked-list" xlink:title="Leetcode-链表(36)">
     <polygon fill="orangered" points="495.5,-756 366.5,-756 366.5,-720 495.5,-720 495.5,-756" stroke="lightgrey"/>
     <text fill="white" font-family="Microsoft YaHei" font-size="14.00" text-anchor="middle" x="431" y="-734.3">
      Leetcode-链表(36)
     </text>
    </a>
   </g>
  </g>
  <!-- 链表第一题 -->
  <g class="node" id="node2">
   <title>
    链表第一题
   </title>
   <polygon fill="lightslategray" points="135.5,-684 44.5,-684 44.5,-648 135.5,-648 135.5,-684" stroke="lightgrey"/>
   <text fill="white" font-family="Microsoft YaHei" font-size="12.00" text-anchor="middle" x="90" y="-662.9">
    链表第一题(1)
   </text>
  </g>
  <!-- Leetcode&#45;链表&#45;&gt;链表第一题 -->
  <g class="edge" id="edge1">
   <title>
    Leetcode-链表-&gt;链表第一题
   </title>
   <path d="M366.3,-726.92C308.47,-717.44 221.59,-702.03 147,-684 146.54,-683.89 146.07,-683.77 145.6,-683.66" fill="none" stroke="lightgrey"/>
   <polygon fill="lightgrey" points="146.18,-680.19 135.62,-681.07 144.42,-686.97 146.18,-680.19" stroke="lightgrey"/>
  </g>
  <!-- 反转链表 -->
  <g class="node" id="node4">
   <title>
    反转链表
   </title>
   <polygon fill="lightslategray" points="235.5,-684 156.5,-684 156.5,-648 235.5,-648 235.5,-684" stroke="lightgrey"/>
   <text fill="white" font-family="Microsoft YaHei" font-size="12.00" text-anchor="middle" x="196" y="-662.9">
    反转链表(6)
   </text>
  </g>
  <!-- Leetcode&#45;链表&#45;&gt;反转链表 -->
  <g class="edge" id="edge3">
   <title>
    Leetcode-链表-&gt;反转链表
   </title>
   <path d="M373.81,-719.97C334.53,-708.26 282.9,-692.89 245.4,-681.72" fill="none" stroke="lightgrey"/>
   <polygon fill="lightgrey" points="246.29,-678.33 235.71,-678.83 244.29,-685.04 246.29,-678.33" stroke="lightgrey"/>
  </g>
  <!-- 删除链表 -->
  <g class="node" id="node11">
   <title>
    删除链表
   </title>
   <polygon fill="lightslategray" points="356.5,-684 277.5,-684 277.5,-648 356.5,-648 356.5,-684" stroke="lightgrey"/>
   <text fill="white" font-family="Microsoft YaHei" font-size="12.00" text-anchor="middle" x="317" y="-662.9">
    删除链表(5)
   </text>
  </g>
  <!-- Leetcode&#45;链表&#45;&gt;删除链表 -->
  <g class="edge" id="edge10">
   <title>
    Leetcode-链表-&gt;删除链表
   </title>
   <path d="M403.11,-719.88C388.21,-710.72 369.67,-699.34 353.62,-689.48" fill="none" stroke="lightgrey"/>
   <polygon fill="lightgrey" points="355.35,-686.44 344.99,-684.19 351.69,-692.41 355.35,-686.44" stroke="lightgrey"/>
  </g>
  <!-- 构建新链表 -->
  <g class="node" id="node17">
   <title>
    构建新链表
   </title>
   <polygon fill="lightslategray" points="476.5,-684 385.5,-684 385.5,-648 476.5,-648 476.5,-684" stroke="lightgrey"/>
   <text fill="white" font-family="Microsoft YaHei" font-size="12.00" text-anchor="middle" x="431" y="-662.9">
    构建新链表(9)
   </text>
  </g>
  <!-- Leetcode&#45;链表&#45;&gt;构建新链表 -->
  <g class="edge" id="edge16">
   <title>
    Leetcode-链表-&gt;构建新链表
   </title>
   <path d="M431,-719.7C431,-711.98 431,-702.71 431,-694.11" fill="none" stroke="lightgrey"/>
   <polygon fill="lightgrey" points="434.5,-694.1 431,-684.1 427.5,-694.1 434.5,-694.1" stroke="lightgrey"/>
  </g>
  <!-- 快慢指针 -->
  <g class="node" id="node27">
   <title>
    快慢指针
   </title>
   <polygon fill="lightslategray" points="573.5,-684 494.5,-684 494.5,-648 573.5,-648 573.5,-684" stroke="lightgrey"/>
   <text fill="white" font-family="Microsoft YaHei" font-size="12.00" text-anchor="middle" x="534" y="-662.9">
    快慢指针(8)
   </text>
  </g>
  <!-- Leetcode&#45;链表&#45;&gt;快慢指针 -->
  <g class="edge" id="edge26">
   <title>
    Leetcode-链表-&gt;快慢指针
   </title>
   <path d="M456.2,-719.88C469.41,-710.89 485.79,-699.76 500.11,-690.03" fill="none" stroke="lightgrey"/>
   <polygon fill="lightgrey" points="502.4,-692.71 508.71,-684.19 498.47,-686.92 502.4,-692.71" stroke="lightgrey"/>
  </g>
  <!-- 链表和其他算法 -->
  <g class="node" id="node36">
   <title>
    链表和其他算法
   </title>
   <polygon fill="lightslategray" points="706.5,-684 591.5,-684 591.5,-648 706.5,-648 706.5,-684" stroke="lightgrey"/>
   <text fill="white" font-family="Microsoft YaHei" font-size="12.00" text-anchor="middle" x="649" y="-662.9">
    链表和其他算法(7)
   </text>
  </g>
  <!-- Leetcode&#45;链表&#45;&gt;链表和其他算法 -->
  <g class="edge" id="edge35">
   <title>
    Leetcode-链表-&gt;链表和其他算法
   </title>
   <path d="M484.05,-719.97C514.77,-710.1 553.64,-697.62 585.92,-687.25" fill="none" stroke="lightgrey"/>
   <polygon fill="lightgrey" points="587.26,-690.5 595.71,-684.11 585.12,-683.84 587.26,-690.5" stroke="lightgrey"/>
  </g>
  <!-- 设计题 -->
  <g class="node" id="node44">
   <title>
    设计题
   </title>
   <polygon fill="lightslategray" points="791.5,-684 724.5,-684 724.5,-648 791.5,-648 791.5,-684" stroke="lightgrey"/>
   <text fill="white" font-family="Microsoft YaHei" font-size="12.00" text-anchor="middle" x="758" y="-662.9">
    设计题(0)
   </text>
  </g>
  <!-- Leetcode&#45;链表&#45;&gt;设计题 -->
  <g class="edge" id="edge43">
   <title>
    Leetcode-链表-&gt;设计题
   </title>
   <path d="M495.55,-728.56C551.38,-720.45 634.24,-706.46 714.62,-683.79" fill="none" stroke="lightgrey"/>
   <polygon fill="lightgrey" points="715.76,-687.11 724.41,-680.99 713.83,-680.38 715.76,-687.11" stroke="lightgrey"/>
  </g>
  <!-- 707 -->
  <g class="node" id="node3">
   <title>
    707
   </title>
   <g id="a_node3">
    <a target="_parent" xlink:href="https://leetcode-cn.com/problems/design-linked-list" xlink:title="707. 设计链表">
     <polygon fill="none" points="114.5,-612 23.5,-612 23.5,-576 114.5,-576 114.5,-612" stroke="orange"/>
     <text font-family="Microsoft YaHei" font-size="12.00" text-anchor="middle" x="69" y="-590.9">
      707. 设计链表
     </text>
    </a>
   </g>
  </g>
  <!-- 链表第一题&#45;&gt;707 -->
  <g class="edge" id="edge2">
   <title>
    链表第一题-&gt;707
   </title>
   <path d="M84.81,-647.7C82.47,-639.9 79.65,-630.51 77.05,-621.83" fill="none" stroke="lightgrey"/>
   <polygon fill="lightgrey" points="80.36,-620.68 74.13,-612.1 73.65,-622.69 80.36,-620.68" stroke="lightgrey"/>
  </g>
  <!-- 234 -->
  <g class="node" id="node5">
   <title>
    234
   </title>
   <g id="a_node5">
    <a target="_parent" xlink:href="https://leetcode-cn.com/problems/palindrome-linked-list" xlink:title="234. 回文链表">
     <polygon fill="none" points="223.5,-612 132.5,-612 132.5,-576 223.5,-576 223.5,-612" stroke="greenyellow"/>
     <text font-family="Microsoft YaHei" font-size="12.00" text-anchor="middle" x="178" y="-590.9">
      234. 回文链表
     </text>
    </a>
   </g>
  </g>
  <!-- 反转链表&#45;&gt;234 -->
  <g class="edge" id="edge4">
   <title>
    反转链表-&gt;234
   </title>
   <path d="M191.55,-647.7C189.55,-639.9 187.13,-630.51 184.9,-621.83" fill="none" stroke="lightgrey"/>
   <polygon fill="lightgrey" points="188.28,-620.92 182.4,-612.1 181.5,-622.66 188.28,-620.92" stroke="lightgrey"/>
  </g>
  <!-- 206 -->
  <g class="node" id="node6">
   <title>
    206
   </title>
   <g id="a_node6">
    <a target="_parent" xlink:href="https://leetcode-cn.com/problems/reverse-linked-list" xlink:title="206. 反转链表">
     <polygon fill="none" points="179.5,-540 88.5,-540 88.5,-504 179.5,-504 179.5,-540" stroke="greenyellow"/>
     <text font-family="Microsoft YaHei" font-size="12.00" text-anchor="middle" x="134" y="-518.9">
      206. 反转链表
     </text>
    </a>
   </g>
  </g>
  <!-- 234&#45;&gt;206 -->
  <g class="edge" id="edge5">
   <title>
    234-&gt;206
   </title>
   <path d="M167.12,-575.7C162.01,-567.56 155.8,-557.69 150.16,-548.7" fill="none" stroke="lightgrey"/>
   <polygon fill="lightgrey" points="153.04,-546.71 144.75,-540.1 147.11,-550.43 153.04,-546.71" stroke="lightgrey"/>
  </g>
  <!-- 24 -->
  <g class="node" id="node7">
   <title>
    24
   </title>
   <g id="a_node7">
    <a target="_parent" xlink:href="https://leetcode-cn.com/problems/swap-nodes-in-pairs" xlink:title="24. 两两交换链表中的节点">
     <polygon fill="none" points="156,-468 0,-468 0,-432 156,-432 156,-468" stroke="orange"/>
     <text font-family="Microsoft YaHei" font-size="12.00" text-anchor="middle" x="78" y="-446.9">
      24. 两两交换链表中的节点
     </text>
    </a>
   </g>
  </g>
  <!-- 206&#45;&gt;24 -->
  <g class="edge" id="edge6">
   <title>
    206-&gt;24
   </title>
   <path d="M120.16,-503.7C113.51,-495.39 105.42,-485.28 98.11,-476.14" fill="none" stroke="lightgrey"/>
   <polygon fill="lightgrey" points="100.66,-473.73 91.68,-468.1 95.2,-478.1 100.66,-473.73" stroke="lightgrey"/>
  </g>
  <!-- 25 -->
  <g class="node" id="node8">
   <title>
    25
   </title>
   <g id="a_node8">
    <a target="_parent" xlink:href="https://leetcode-cn.com/problems/reverse-nodes-in-k-group" xlink:title="25. K 个一组翻转链表">
     <polygon fill="none" points="143.5,-396 12.5,-396 12.5,-360 143.5,-360 143.5,-396" stroke="red"/>
     <text font-family="Microsoft YaHei" font-size="12.00" text-anchor="middle" x="78" y="-374.9">
      25. K 个一组翻转链表
     </text>
    </a>
   </g>
  </g>
  <!-- 24&#45;&gt;25 -->
  <g class="edge" id="edge7">
   <title>
    24-&gt;25
   </title>
   <path d="M78,-431.7C78,-423.98 78,-414.71 78,-406.11" fill="none" stroke="lightgrey"/>
   <polygon fill="lightgrey" points="81.5,-406.1 78,-396.1 74.5,-406.1 81.5,-406.1" stroke="lightgrey"/>
  </g>
  <!-- 92 -->
  <g class="node" id="node9">
   <title>
    92
   </title>
   <g id="a_node9">
    <a target="_parent" xlink:href="https://leetcode-cn.com/problems/reverse-linked-list-ii" xlink:title="92. 反转链表 II">
     <polygon fill="none" points="125,-324 31,-324 31,-288 125,-288 125,-324" stroke="orange"/>
     <text font-family="Microsoft YaHei" font-size="12.00" text-anchor="middle" x="78" y="-302.9">
      92. 反转链表 II
     </text>
    </a>
   </g>
  </g>
  <!-- 25&#45;&gt;92 -->
  <g class="edge" id="edge8">
   <title>
    25-&gt;92
   </title>
   <path d="M78,-359.7C78,-351.98 78,-342.71 78,-334.11" fill="none" stroke="lightgrey"/>
   <polygon fill="lightgrey" points="81.5,-334.1 78,-324.1 74.5,-334.1 81.5,-334.1" stroke="lightgrey"/>
  </g>
  <!-- 143 -->
  <g class="node" id="node10">
   <title>
    143
   </title>
   <g id="a_node10">
    <a target="_parent" xlink:href="https://leetcode-cn.com/problems/reorder-list" xlink:title="143. 重排链表">
     <polygon fill="none" points="123.5,-252 32.5,-252 32.5,-216 123.5,-216 123.5,-252" stroke="orange"/>
     <text font-family="Microsoft YaHei" font-size="12.00" text-anchor="middle" x="78" y="-230.9">
      143. 重排链表
     </text>
    </a>
   </g>
  </g>
  <!-- 92&#45;&gt;143 -->
  <g class="edge" id="edge9">
   <title>
    92-&gt;143
   </title>
   <path d="M78,-287.7C78,-279.98 78,-270.71 78,-262.11" fill="none" stroke="lightgrey"/>
   <polygon fill="lightgrey" points="81.5,-262.1 78,-252.1 74.5,-262.1 81.5,-262.1" stroke="lightgrey"/>
  </g>
  <!-- 237 -->
  <g class="node" id="node12">
   <title>
    237
   </title>
   <g id="a_node12">
    <a target="_parent" xlink:href="https://leetcode-cn.com/problems/delete-node-in-a-linked-list" xlink:title="237. 删除链表中的节点">
     <polygon fill="none" points="380.5,-612 241.5,-612 241.5,-576 380.5,-576 380.5,-612" stroke="greenyellow"/>
     <text font-family="Microsoft YaHei" font-size="12.00" text-anchor="middle" x="311" y="-590.9">
      237. 删除链表中的节点
     </text>
    </a>
   </g>
  </g>
  <!-- 删除链表&#45;&gt;237 -->
  <g class="edge" id="edge11">
   <title>
    删除链表-&gt;237
   </title>
   <path d="M315.52,-647.7C314.86,-639.98 314.06,-630.71 313.32,-622.11" fill="none" stroke="lightgrey"/>
   <polygon fill="lightgrey" points="316.81,-621.77 312.47,-612.1 309.83,-622.37 316.81,-621.77" stroke="lightgrey"/>
  </g>
  <!-- 203 -->
  <g class="node" id="node13">
   <title>
    203
   </title>
   <g id="a_node13">
    <a target="_parent" xlink:href="https://leetcode-cn.com/problems/remove-linked-list-elements" xlink:title="203. 移除链表元素">
     <polygon fill="none" points="344.5,-540 229.5,-540 229.5,-504 344.5,-504 344.5,-540" stroke="greenyellow"/>
     <text font-family="Microsoft YaHei" font-size="12.00" text-anchor="middle" x="287" y="-518.9">
      203. 移除链表元素
     </text>
    </a>
   </g>
  </g>
  <!-- 237&#45;&gt;203 -->
  <g class="edge" id="edge12">
   <title>
    237-&gt;203
   </title>
   <path d="M305.07,-575.7C302.39,-567.9 299.17,-558.51 296.2,-549.83" fill="none" stroke="lightgrey"/>
   <polygon fill="lightgrey" points="299.42,-548.43 292.86,-540.1 292.8,-550.7 299.42,-548.43" stroke="lightgrey"/>
  </g>
  <!-- 83 -->
  <g class="node" id="node14">
   <title>
    83
   </title>
   <g id="a_node14">
    <a target="_parent" xlink:href="https://leetcode-cn.com/problems/remove-duplicates-from-sorted-list" xlink:title="83. 删除排序链表中的重复元素">
     <polygon fill="none" points="354,-468 174,-468 174,-432 354,-432 354,-468" stroke="greenyellow"/>
     <text font-family="Microsoft YaHei" font-size="12.00" text-anchor="middle" x="264" y="-446.9">
      83. 删除排序链表中的重复元素
     </text>
    </a>
   </g>
  </g>
  <!-- 203&#45;&gt;83 -->
  <g class="edge" id="edge13">
   <title>
    203-&gt;83
   </title>
   <path d="M281.31,-503.7C278.75,-495.9 275.67,-486.51 272.82,-477.83" fill="none" stroke="lightgrey"/>
   <polygon fill="lightgrey" points="276.07,-476.51 269.62,-468.1 269.42,-478.7 276.07,-476.51" stroke="lightgrey"/>
  </g>
  <!-- 82 -->
  <g class="node" id="node15">
   <title>
    82
   </title>
   <g id="a_node15">
    <a target="_parent" xlink:href="https://leetcode-cn.com/problems/remove-duplicates-from-sorted-list-ii" xlink:title="82. 删除排序链表中的重复元素 II">
     <polygon fill="none" points="359,-396 169,-396 169,-360 359,-360 359,-396" stroke="orange"/>
     <text font-family="Microsoft YaHei" font-size="12.00" text-anchor="middle" x="264" y="-374.9">
      82. 删除排序链表中的重复元素 II
     </text>
    </a>
   </g>
  </g>
  <!-- 83&#45;&gt;82 -->
  <g class="edge" id="edge14">
   <title>
    83-&gt;82
   </title>
   <path d="M264,-431.7C264,-423.98 264,-414.71 264,-406.11" fill="none" stroke="lightgrey"/>
   <polygon fill="lightgrey" points="267.5,-406.1 264,-396.1 260.5,-406.1 267.5,-406.1" stroke="lightgrey"/>
  </g>
  <!-- 1171 -->
  <g class="node" id="node16">
   <title>
    1171
   </title>
   <g id="a_node16">
    <a target="_parent" xlink:href="https://leetcode-cn.com/problems/remove-zero-sum-consecutive-nodes-from-linked-list" xlink:title="1171. 从链表中删去总和值为零的连续节点">
     <polygon fill="none" points="384,-324 144,-324 144,-288 384,-288 384,-324" stroke="orange"/>
     <text font-family="Microsoft YaHei" font-size="12.00" text-anchor="middle" x="264" y="-302.9">
      1171. 从链表中删去总和值为零的连续节点
     </text>
    </a>
   </g>
  </g>
  <!-- 82&#45;&gt;1171 -->
  <g class="edge" id="edge15">
   <title>
    82-&gt;1171
   </title>
   <path d="M264,-359.7C264,-351.98 264,-342.71 264,-334.11" fill="none" stroke="lightgrey"/>
   <polygon fill="lightgrey" points="267.5,-334.1 264,-324.1 260.5,-334.1 267.5,-334.1" stroke="lightgrey"/>
  </g>
  <!-- 2 -->
  <g class="node" id="node18">
   <title>
    2
   </title>
   <g id="a_node18">
    <a target="_parent" xlink:href="https://leetcode-cn.com/problems/add-two-numbers" xlink:title="2. 两数相加">
     <polygon fill="none" points="475.5,-612 398.5,-612 398.5,-576 475.5,-576 475.5,-612" stroke="orange"/>
     <text font-family="Microsoft YaHei" font-size="12.00" text-anchor="middle" x="437" y="-590.9">
      2. 两数相加
     </text>
    </a>
   </g>
  </g>
  <!-- 构建新链表&#45;&gt;2 -->
  <g class="edge" id="edge17">
   <title>
    构建新链表-&gt;2
   </title>
   <path d="M432.48,-647.7C433.14,-639.98 433.94,-630.71 434.68,-622.11" fill="none" stroke="lightgrey"/>
   <polygon fill="lightgrey" points="438.17,-622.37 435.53,-612.1 431.19,-621.77 438.17,-622.37" stroke="lightgrey"/>
  </g>
  <!-- 445 -->
  <g class="node" id="node19">
   <title>
    445
   </title>
   <g id="a_node19">
    <a target="_parent" xlink:href="https://leetcode-cn.com/problems/add-two-numbers-ii" xlink:title="445. 两数相加 II">
     <polygon fill="none" points="487.5,-540 386.5,-540 386.5,-504 487.5,-504 487.5,-540" stroke="orange"/>
     <text font-family="Microsoft YaHei" font-size="12.00" text-anchor="middle" x="437" y="-518.9">
      445. 两数相加 II
     </text>
    </a>
   </g>
  </g>
  <!-- 2&#45;&gt;445 -->
  <g class="edge" id="edge18">
   <title>
    2-&gt;445
   </title>
   <path d="M437,-575.7C437,-567.98 437,-558.71 437,-550.11" fill="none" stroke="lightgrey"/>
   <polygon fill="lightgrey" points="440.5,-550.1 437,-540.1 433.5,-550.1 440.5,-550.1" stroke="lightgrey"/>
  </g>
  <!-- 430 -->
  <g class="node" id="node20">
   <title>
    430
   </title>
   <g id="a_node20">
    <a target="_parent" xlink:href="https://leetcode-cn.com/problems/flatten-a-multilevel-doubly-linked-list" xlink:title="430. 扁平化多级双向链表">
     <polygon fill="none" points="523.5,-468 372.5,-468 372.5,-432 523.5,-432 523.5,-468" stroke="orange"/>
     <text font-family="Microsoft YaHei" font-size="12.00" text-anchor="middle" x="448" y="-446.9">
      430. 扁平化多级双向链表
     </text>
    </a>
   </g>
  </g>
  <!-- 445&#45;&gt;430 -->
  <g class="edge" id="edge19">
   <title>
    445-&gt;430
   </title>
   <path d="M439.72,-503.7C440.93,-495.98 442.39,-486.71 443.74,-478.11" fill="none" stroke="lightgrey"/>
   <polygon fill="lightgrey" points="447.22,-478.53 445.31,-468.1 440.3,-477.44 447.22,-478.53" stroke="lightgrey"/>
  </g>
  <!-- 1669 -->
  <g class="node" id="node21">
   <title>
    1669
   </title>
   <g id="a_node21">
    <a target="_parent" xlink:href="https://leetcode-cn.com/problems/merge-in-between-linked-lists" xlink:title="1669. 合并两个链表">
     <polygon fill="none" points="507,-396 385,-396 385,-360 507,-360 507,-396" stroke="orange"/>
     <text font-family="Microsoft YaHei" font-size="12.00" text-anchor="middle" x="446" y="-374.9">
      1669. 合并两个链表
     </text>
    </a>
   </g>
  </g>
  <!-- 430&#45;&gt;1669 -->
  <g class="edge" id="edge20">
   <title>
    430-&gt;1669
   </title>
   <path d="M447.51,-431.7C447.29,-423.98 447.02,-414.71 446.77,-406.11" fill="none" stroke="lightgrey"/>
   <polygon fill="lightgrey" points="450.27,-406 446.49,-396.1 443.28,-406.2 450.27,-406" stroke="lightgrey"/>
  </g>
  <!-- 86 -->
  <g class="node" id="node22">
   <title>
    86
   </title>
   <g id="a_node22">
    <a target="_parent" xlink:href="https://leetcode-cn.com/problems/partition-list" xlink:title="86. 分隔链表">
     <polygon fill="none" points="488,-324 404,-324 404,-288 488,-288 488,-324" stroke="orange"/>
     <text font-family="Microsoft YaHei" font-size="12.00" text-anchor="middle" x="446" y="-302.9">
      86. 分隔链表
     </text>
    </a>
   </g>
  </g>
  <!-- 1669&#45;&gt;86 -->
  <g class="edge" id="edge21">
   <title>
    1669-&gt;86
   </title>
   <path d="M446,-359.7C446,-351.98 446,-342.71 446,-334.11" fill="none" stroke="lightgrey"/>
   <polygon fill="lightgrey" points="449.5,-334.1 446,-324.1 442.5,-334.1 449.5,-334.1" stroke="lightgrey"/>
  </g>
  <!-- 328 -->
  <g class="node" id="node23">
   <title>
    328
   </title>
   <g id="a_node23">
    <a target="_parent" xlink:href="https://leetcode-cn.com/problems/odd-even-linked-list" xlink:title="328. 奇偶链表">
     <polygon fill="none" points="491.5,-252 400.5,-252 400.5,-216 491.5,-216 491.5,-252" stroke="orange"/>
     <text font-family="Microsoft YaHei" font-size="12.00" text-anchor="middle" x="446" y="-230.9">
      328. 奇偶链表
     </text>
    </a>
   </g>
  </g>
  <!-- 86&#45;&gt;328 -->
  <g class="edge" id="edge22">
   <title>
    86-&gt;328
   </title>
   <path d="M446,-287.7C446,-279.98 446,-270.71 446,-262.11" fill="none" stroke="lightgrey"/>
   <polygon fill="lightgrey" points="449.5,-262.1 446,-252.1 442.5,-262.1 449.5,-262.1" stroke="lightgrey"/>
  </g>
  <!-- 725 -->
  <g class="node" id="node24">
   <title>
    725
   </title>
   <g id="a_node24">
    <a target="_parent" xlink:href="https://leetcode-cn.com/problems/split-linked-list-in-parts" xlink:title="725. 分隔链表">
     <polygon fill="none" points="491.5,-180 400.5,-180 400.5,-144 491.5,-144 491.5,-180" stroke="orange"/>
     <text font-family="Microsoft YaHei" font-size="12.00" text-anchor="middle" x="446" y="-158.9">
      725. 分隔链表
     </text>
    </a>
   </g>
  </g>
  <!-- 328&#45;&gt;725 -->
  <g class="edge" id="edge23">
   <title>
    328-&gt;725
   </title>
   <path d="M446,-215.7C446,-207.98 446,-198.71 446,-190.11" fill="none" stroke="lightgrey"/>
   <polygon fill="lightgrey" points="449.5,-190.1 446,-180.1 442.5,-190.1 449.5,-190.1" stroke="lightgrey"/>
  </g>
  <!-- 21 -->
  <g class="node" id="node25">
   <title>
    21
   </title>
   <g id="a_node25">
    <a target="_parent" xlink:href="https://leetcode-cn.com/problems/merge-two-sorted-lists" xlink:title="21. 合并两个有序链表">
     <polygon fill="none" points="512,-108 380,-108 380,-72 512,-72 512,-108" stroke="greenyellow"/>
     <text font-family="Microsoft YaHei" font-size="12.00" text-anchor="middle" x="446" y="-86.9">
      21. 合并两个有序链表
     </text>
    </a>
   </g>
  </g>
  <!-- 725&#45;&gt;21 -->
  <g class="edge" id="edge24">
   <title>
    725-&gt;21
   </title>
   <path d="M446,-143.7C446,-135.98 446,-126.71 446,-118.11" fill="none" stroke="lightgrey"/>
   <polygon fill="lightgrey" points="449.5,-118.1 446,-108.1 442.5,-118.1 449.5,-118.1" stroke="lightgrey"/>
  </g>
  <!-- 23 -->
  <g class="node" id="node26">
   <title>
    23
   </title>
   <g id="a_node26">
    <a target="_parent" xlink:href="https://leetcode-cn.com/problems/merge-k-sorted-lists" xlink:title="23. 合并K个升序链表">
     <polygon fill="none" points="510,-36 382,-36 382,0 510,0 510,-36" stroke="red"/>
     <text font-family="Microsoft YaHei" font-size="12.00" text-anchor="middle" x="446" y="-14.9">
      23. 合并K个升序链表
     </text>
    </a>
   </g>
  </g>
  <!-- 21&#45;&gt;23 -->
  <g class="edge" id="edge25">
   <title>
    21-&gt;23
   </title>
   <path d="M446,-71.7C446,-63.98 446,-54.71 446,-46.11" fill="none" stroke="lightgrey"/>
   <polygon fill="lightgrey" points="449.5,-46.1 446,-36.1 442.5,-46.1 449.5,-46.1" stroke="lightgrey"/>
  </g>
  <!-- 876 -->
  <g class="node" id="node28">
   <title>
    876
   </title>
   <g id="a_node28">
    <a target="_parent" xlink:href="https://leetcode-cn.com/problems/middle-of-the-linked-list" xlink:title="876. 链表的中间结点">
     <polygon fill="none" points="640.5,-612 513.5,-612 513.5,-576 640.5,-576 640.5,-612" stroke="greenyellow"/>
     <text font-family="Microsoft YaHei" font-size="12.00" text-anchor="middle" x="577" y="-590.9">
      876. 链表的中间结点
     </text>
    </a>
   </g>
  </g>
  <!-- 快慢指针&#45;&gt;876 -->
  <g class="edge" id="edge27">
   <title>
    快慢指针-&gt;876
   </title>
   <path d="M544.63,-647.7C549.63,-639.56 555.69,-629.69 561.21,-620.7" fill="none" stroke="lightgrey"/>
   <polygon fill="lightgrey" points="564.24,-622.46 566.49,-612.1 558.28,-618.79 564.24,-622.46" stroke="lightgrey"/>
  </g>
  <!-- 19 -->
  <g class="node" id="node29">
   <title>
    19
   </title>
   <g id="a_node29">
    <a target="_parent" xlink:href="https://leetcode-cn.com/problems/remove-nth-node-from-end-of-list" xlink:title="19. 删除链表的倒数第 N 个结点">
     <polygon fill="none" points="690,-540 506,-540 506,-504 690,-504 690,-540" stroke="orange"/>
     <text font-family="Microsoft YaHei" font-size="12.00" text-anchor="middle" x="598" y="-518.9">
      19. 删除链表的倒数第 N 个结点
     </text>
    </a>
   </g>
  </g>
  <!-- 876&#45;&gt;19 -->
  <g class="edge" id="edge28">
   <title>
    876-&gt;19
   </title>
   <path d="M582.19,-575.7C584.53,-567.9 587.35,-558.51 589.95,-549.83" fill="none" stroke="lightgrey"/>
   <polygon fill="lightgrey" points="593.35,-550.69 592.87,-540.1 586.64,-548.68 593.35,-550.69" stroke="lightgrey"/>
  </g>
  <!-- 61 -->
  <g class="node" id="node30">
   <title>
    61
   </title>
   <g id="a_node30">
    <a target="_parent" xlink:href="https://leetcode-cn.com/problems/rotate-list" xlink:title="61. 旋转链表">
     <polygon fill="none" points="640,-468 556,-468 556,-432 640,-432 640,-468" stroke="orange"/>
     <text font-family="Microsoft YaHei" font-size="12.00" text-anchor="middle" x="598" y="-446.9">
      61. 旋转链表
     </text>
    </a>
   </g>
  </g>
  <!-- 19&#45;&gt;61 -->
  <g class="edge" id="edge29">
   <title>
    19-&gt;61
   </title>
   <path d="M598,-503.7C598,-495.98 598,-486.71 598,-478.11" fill="none" stroke="lightgrey"/>
   <polygon fill="lightgrey" points="601.5,-478.1 598,-468.1 594.5,-478.1 601.5,-478.1" stroke="lightgrey"/>
  </g>
  <!-- 1721 -->
  <g class="node" id="node31">
   <title>
    1721
   </title>
   <g id="a_node31">
    <a target="_parent" xlink:href="https://leetcode-cn.com/problems/swapping-nodes-in-a-linked-list" xlink:title="1721. 交换链表中的节点">
     <polygon fill="none" points="671,-396 525,-396 525,-360 671,-360 671,-396" stroke="orange"/>
     <text font-family="Microsoft YaHei" font-size="12.00" text-anchor="middle" x="598" y="-374.9">
      1721. 交换链表中的节点
     </text>
    </a>
   </g>
  </g>
  <!-- 61&#45;&gt;1721 -->
  <g class="edge" id="edge30">
   <title>
    61-&gt;1721
   </title>
   <path d="M598,-431.7C598,-423.98 598,-414.71 598,-406.11" fill="none" stroke="lightgrey"/>
   <polygon fill="lightgrey" points="601.5,-406.1 598,-396.1 594.5,-406.1 601.5,-406.1" stroke="lightgrey"/>
  </g>
  <!-- 109 -->
  <g class="node" id="node32">
   <title>
    109
   </title>
   <g id="a_node32">
    <a target="_parent" xlink:href="https://leetcode-cn.com/problems/convert-sorted-list-to-binary-search-tree" xlink:title="109. 有序链表转换二叉搜索树">
     <polygon fill="none" points="685.5,-324 510.5,-324 510.5,-288 685.5,-288 685.5,-324" stroke="orange"/>
     <text font-family="Microsoft YaHei" font-size="12.00" text-anchor="middle" x="598" y="-302.9">
      109. 有序链表转换二叉搜索树
     </text>
    </a>
   </g>
  </g>
  <!-- 1721&#45;&gt;109 -->
  <g class="edge" id="edge31">
   <title>
    1721-&gt;109
   </title>
   <path d="M598,-359.7C598,-351.98 598,-342.71 598,-334.11" fill="none" stroke="lightgrey"/>
   <polygon fill="lightgrey" points="601.5,-334.1 598,-324.1 594.5,-334.1 601.5,-334.1" stroke="lightgrey"/>
  </g>
  <!-- 141 -->
  <g class="node" id="node33">
   <title>
    141
   </title>
   <g id="a_node33">
    <a target="_parent" xlink:href="https://leetcode-cn.com/problems/linked-list-cycle" xlink:title="141. 环形链表">
     <polygon fill="none" points="643.5,-252 552.5,-252 552.5,-216 643.5,-216 643.5,-252" stroke="greenyellow"/>
     <text font-family="Microsoft YaHei" font-size="12.00" text-anchor="middle" x="598" y="-230.9">
      141. 环形链表
     </text>
    </a>
   </g>
  </g>
  <!-- 109&#45;&gt;141 -->
  <g class="edge" id="edge32">
   <title>
    109-&gt;141
   </title>
   <path d="M598,-287.7C598,-279.98 598,-270.71 598,-262.11" fill="none" stroke="lightgrey"/>
   <polygon fill="lightgrey" points="601.5,-262.1 598,-252.1 594.5,-262.1 601.5,-262.1" stroke="lightgrey"/>
  </g>
  <!-- 160 -->
  <g class="node" id="node34">
   <title>
    160
   </title>
   <g id="a_node34">
    <a target="_parent" xlink:href="https://leetcode-cn.com/problems/intersection-of-two-linked-lists" xlink:title="160. 相交链表">
     <polygon fill="none" points="643.5,-180 552.5,-180 552.5,-144 643.5,-144 643.5,-180" stroke="greenyellow"/>
     <text font-family="Microsoft YaHei" font-size="12.00" text-anchor="middle" x="598" y="-158.9">
      160. 相交链表
     </text>
    </a>
   </g>
  </g>
  <!-- 141&#45;&gt;160 -->
  <g class="edge" id="edge33">
   <title>
    141-&gt;160
   </title>
   <path d="M598,-215.7C598,-207.98 598,-198.71 598,-190.11" fill="none" stroke="lightgrey"/>
   <polygon fill="lightgrey" points="601.5,-190.1 598,-180.1 594.5,-190.1 601.5,-190.1" stroke="lightgrey"/>
  </g>
  <!-- 142 -->
  <g class="node" id="node35">
   <title>
    142
   </title>
   <g id="a_node35">
    <a target="_parent" xlink:href="https://leetcode-cn.com/problems/linked-list-cycle-ii" xlink:title="142. 环形链表 II">
     <polygon fill="none" points="648.5,-108 547.5,-108 547.5,-72 648.5,-72 648.5,-108" stroke="orange"/>
     <text font-family="Microsoft YaHei" font-size="12.00" text-anchor="middle" x="598" y="-86.9">
      142. 环形链表 II
     </text>
    </a>
   </g>
  </g>
  <!-- 160&#45;&gt;142 -->
  <g class="edge" id="edge34">
   <title>
    160-&gt;142
   </title>
   <path d="M598,-143.7C598,-135.98 598,-126.71 598,-118.11" fill="none" stroke="lightgrey"/>
   <polygon fill="lightgrey" points="601.5,-118.1 598,-108.1 594.5,-118.1 601.5,-118.1" stroke="lightgrey"/>
  </g>
  <!-- 1290 -->
  <g class="node" id="node37">
   <title>
    1290
   </title>
   <g id="a_node37">
    <a target="_parent" xlink:href="https://leetcode-cn.com/problems/convert-binary-number-in-a-linked-list-to-integer" xlink:title="1290. 二进制链表转整数">
     <polygon fill="none" points="819,-612 673,-612 673,-576 819,-576 819,-612" stroke="greenyellow"/>
     <text font-family="Microsoft YaHei" font-size="12.00" text-anchor="middle" x="746" y="-590.9">
      1290. 二进制链表转整数
     </text>
    </a>
   </g>
  </g>
  <!-- 链表和其他算法&#45;&gt;1290 -->
  <g class="edge" id="edge36">
   <title>
    链表和其他算法-&gt;1290
   </title>
   <path d="M672.98,-647.7C685.31,-638.8 700.52,-627.82 713.85,-618.2" fill="none" stroke="lightgrey"/>
   <polygon fill="lightgrey" points="716.24,-620.79 722.3,-612.1 712.14,-615.12 716.24,-620.79" stroke="lightgrey"/>
  </g>
  <!-- 817 -->
  <g class="node" id="node38">
   <title>
    817
   </title>
   <g id="a_node38">
    <a target="_parent" xlink:href="https://leetcode-cn.com/problems/linked-list-components" xlink:title="817. 链表组件">
     <polygon fill="none" points="805.5,-540 714.5,-540 714.5,-504 805.5,-504 805.5,-540" stroke="orange"/>
     <text font-family="Microsoft YaHei" font-size="12.00" text-anchor="middle" x="760" y="-518.9">
      817. 链表组件
     </text>
    </a>
   </g>
  </g>
  <!-- 1290&#45;&gt;817 -->
  <g class="edge" id="edge37">
   <title>
    1290-&gt;817
   </title>
   <path d="M749.46,-575.7C751,-567.98 752.86,-558.71 754.58,-550.11" fill="none" stroke="lightgrey"/>
   <polygon fill="lightgrey" points="758.05,-550.6 756.58,-540.1 751.19,-549.22 758.05,-550.6" stroke="lightgrey"/>
  </g>
  <!-- 1367 -->
  <g class="node" id="node39">
   <title>
    1367
   </title>
   <g id="a_node39">
    <a target="_parent" xlink:href="https://leetcode-cn.com/problems/linked-list-in-binary-tree" xlink:title="1367. 二叉树中的列表">
     <polygon fill="none" points="840,-468 706,-468 706,-432 840,-432 840,-468" stroke="orange"/>
     <text font-family="Microsoft YaHei" font-size="12.00" text-anchor="middle" x="773" y="-446.9">
      1367. 二叉树中的列表
     </text>
    </a>
   </g>
  </g>
  <!-- 817&#45;&gt;1367 -->
  <g class="edge" id="edge38">
   <title>
    817-&gt;1367
   </title>
   <path d="M763.21,-503.7C764.65,-495.98 766.37,-486.71 767.96,-478.11" fill="none" stroke="lightgrey"/>
   <polygon fill="lightgrey" points="771.44,-478.58 769.82,-468.1 764.56,-477.3 771.44,-478.58" stroke="lightgrey"/>
  </g>
  <!-- 1019 -->
  <g class="node" id="node40">
   <title>
    1019
   </title>
   <g id="a_node40">
    <a target="_parent" xlink:href="https://leetcode-cn.com/problems/next-greater-node-in-linked-list" xlink:title="1019. 链表中的下一个更大节点">
     <polygon fill="none" points="871,-396 689,-396 689,-360 871,-360 871,-396" stroke="orange"/>
     <text font-family="Microsoft YaHei" font-size="12.00" text-anchor="middle" x="780" y="-374.9">
      1019. 链表中的下一个更大节点
     </text>
    </a>
   </g>
  </g>
  <!-- 1367&#45;&gt;1019 -->
  <g class="edge" id="edge39">
   <title>
    1367-&gt;1019
   </title>
   <path d="M774.73,-431.7C775.5,-423.98 776.43,-414.71 777.29,-406.11" fill="none" stroke="lightgrey"/>
   <polygon fill="lightgrey" points="780.78,-406.4 778.29,-396.1 773.81,-405.71 780.78,-406.4" stroke="lightgrey"/>
  </g>
  <!-- 147 -->
  <g class="node" id="node41">
   <title>
    147
   </title>
   <g id="a_node41">
    <a target="_parent" xlink:href="https://leetcode-cn.com/problems/insertion-sort-list" xlink:title="147. 对链表进行插入排序">
     <polygon fill="none" points="855.5,-324 704.5,-324 704.5,-288 855.5,-288 855.5,-324" stroke="orange"/>
     <text font-family="Microsoft YaHei" font-size="12.00" text-anchor="middle" x="780" y="-302.9">
      147. 对链表进行插入排序
     </text>
    </a>
   </g>
  </g>
  <!-- 1019&#45;&gt;147 -->
  <g class="edge" id="edge40">
   <title>
    1019-&gt;147
   </title>
   <path d="M780,-359.7C780,-351.98 780,-342.71 780,-334.11" fill="none" stroke="lightgrey"/>
   <polygon fill="lightgrey" points="783.5,-334.1 780,-324.1 776.5,-334.1 783.5,-334.1" stroke="lightgrey"/>
  </g>
  <!-- 148 -->
  <g class="node" id="node42">
   <title>
    148
   </title>
   <g id="a_node42">
    <a target="_parent" xlink:href="https://leetcode-cn.com/problems/sort-list" xlink:title="148. 排序链表">
     <polygon fill="none" points="825.5,-252 734.5,-252 734.5,-216 825.5,-216 825.5,-252" stroke="orange"/>
     <text font-family="Microsoft YaHei" font-size="12.00" text-anchor="middle" x="780" y="-230.9">
      148. 排序链表
     </text>
    </a>
   </g>
  </g>
  <!-- 147&#45;&gt;148 -->
  <g class="edge" id="edge41">
   <title>
    147-&gt;148
   </title>
   <path d="M780,-287.7C780,-279.98 780,-270.71 780,-262.11" fill="none" stroke="lightgrey"/>
   <polygon fill="lightgrey" points="783.5,-262.1 780,-252.1 776.5,-262.1 783.5,-262.1" stroke="lightgrey"/>
  </g>
  <!-- 138 -->
  <g class="node" id="node43">
   <title>
    138
   </title>
   <g id="a_node43">
    <a target="_parent" xlink:href="https://leetcode-cn.com/problems/copy-list-with-random-pointer" xlink:title="138. 复制带随机指针的链表">
     <polygon fill="none" points="861.5,-180 698.5,-180 698.5,-144 861.5,-144 861.5,-180" stroke="orange"/>
     <text font-family="Microsoft YaHei" font-size="12.00" text-anchor="middle" x="780" y="-158.9">
      138. 复制带随机指针的链表
     </text>
    </a>
   </g>
  </g>
  <!-- 148&#45;&gt;138 -->
  <g class="edge" id="edge42">
   <title>
    148-&gt;138
   </title>
   <path d="M780,-215.7C780,-207.98 780,-198.71 780,-190.11" fill="none" stroke="lightgrey"/>
   <polygon fill="lightgrey" points="783.5,-190.1 780,-180.1 776.5,-190.1 783.5,-190.1" stroke="lightgrey"/>
  </g>
  <g class="key">
   <defs>
    <filter height="1.2" id="solid" width="1.2" x="-0.1" y="-0.1">
     <feFlood flood-color="#ccff90" result="bg"/>
     <feMerge>
      <feMergeNode in="bg"/>
      <feMergeNode in="SourceGraphic"/>
     </feMerge>
    </filter>
   </defs>
   <text filter="url(#solid)" font-family="Microsoft YaHei" font-size="10.00" text-anchor="middle" x="69.0" y="-571.0">
    链表增删改查
   </text>
  </g>
  <g class="key">
   <defs>
    <filter height="1.2" id="solid" width="1.2" x="-0.1" y="-0.1">
     <feFlood flood-color="#ccff90" result="bg"/>
     <feMerge>
      <feMergeNode in="bg"/>
      <feMergeNode in="SourceGraphic"/>
     </feMerge>
    </filter>
   </defs>
   <text filter="url(#solid)" font-family="Microsoft YaHei" font-size="10.00" text-anchor="middle" x="311.0" y="-571.0">
    简单删除
   </text>
  </g>
  <g class="key">
   <defs>
    <filter height="1.2" id="solid" width="1.2" x="-0.1" y="-0.1">
     <feFlood flood-color="#ccff90" result="bg"/>
     <feMerge>
      <feMergeNode in="bg"/>
      <feMergeNode in="SourceGraphic"/>
     </feMerge>
    </filter>
   </defs>
   <text filter="url(#solid)" font-family="Microsoft YaHei" font-size="10.00" text-anchor="middle" x="287.0" y="-499.0">
    删除多个
   </text>
  </g>
  <g class="key">
   <defs>
    <filter height="1.2" id="solid" width="1.2" x="-0.1" y="-0.1">
     <feFlood flood-color="#ccff90" result="bg"/>
     <feMerge>
      <feMergeNode in="bg"/>
      <feMergeNode in="SourceGraphic"/>
     </feMerge>
    </filter>
   </defs>
   <text filter="url(#solid)" font-family="Microsoft YaHei" font-size="10.00" text-anchor="middle" x="264.0" y="-283.0">
    区间和
   </text>
  </g>
  <g class="key">
   <defs>
    <filter height="1.2" id="solid" width="1.2" x="-0.1" y="-0.1">
     <feFlood flood-color="#ccff90" result="bg"/>
     <feMerge>
      <feMergeNode in="bg"/>
      <feMergeNode in="SourceGraphic"/>
     </feMerge>
    </filter>
   </defs>
   <text filter="url(#solid)" font-family="Microsoft YaHei" font-size="10.00" text-anchor="middle" x="446.0" y="5.0">
    堆
   </text>
  </g>
  <g class="key">
   <defs>
    <filter height="1.2" id="solid" width="1.2" x="-0.1" y="-0.1">
     <feFlood flood-color="#ccff90" result="bg"/>
     <feMerge>
      <feMergeNode in="bg"/>
      <feMergeNode in="SourceGraphic"/>
     </feMerge>
    </filter>
   </defs>
   <text filter="url(#solid)" font-family="Microsoft YaHei" font-size="10.00" text-anchor="middle" x="598.0" y="-139.0">
    路程相等
   </text>
  </g>
  <g class="key">
   <defs>
    <filter height="1.2" id="solid" width="1.2" x="-0.1" y="-0.1">
     <feFlood flood-color="#ccff90" result="bg"/>
     <feMerge>
      <feMergeNode in="bg"/>
      <feMergeNode in="SourceGraphic"/>
     </feMerge>
    </filter>
   </defs>
   <text filter="url(#solid)" font-family="Microsoft YaHei" font-size="10.00" text-anchor="middle" x="598.0" y="-67.0">
    公式推理
   </text>
  </g>
  <g class="key">
   <defs>
    <filter height="1.2" id="solid" width="1.2" x="-0.1" y="-0.1">
     <feFlood flood-color="#ccff90" result="bg"/>
     <feMerge>
      <feMergeNode in="bg"/>
      <feMergeNode in="SourceGraphic"/>
     </feMerge>
    </filter>
   </defs>
   <text filter="url(#solid)" font-family="Microsoft YaHei" font-size="10.00" text-anchor="middle" x="746.0" y="-571.0">
    位运算
   </text>
  </g>
  <g class="key">
   <defs>
    <filter height="1.2" id="solid" width="1.2" x="-0.1" y="-0.1">
     <feFlood flood-color="#ccff90" result="bg"/>
     <feMerge>
      <feMergeNode in="bg"/>
      <feMergeNode in="SourceGraphic"/>
     </feMerge>
    </filter>
   </defs>
   <text filter="url(#solid)" font-family="Microsoft YaHei" font-size="10.00" text-anchor="middle" x="760.0" y="-499.0">
    set
   </text>
  </g>
  <g class="key">
   <defs>
    <filter height="1.2" id="solid" width="1.2" x="-0.1" y="-0.1">
     <feFlood flood-color="#ccff90" result="bg"/>
     <feMerge>
      <feMergeNode in="bg"/>
      <feMergeNode in="SourceGraphic"/>
     </feMerge>
    </filter>
   </defs>
   <text filter="url(#solid)" font-family="Microsoft YaHei" font-size="10.00" text-anchor="middle" x="773.0" y="-427.0">
    二叉树搜索
   </text>
  </g>
  <g class="key">
   <defs>
    <filter height="1.2" id="solid" width="1.2" x="-0.1" y="-0.1">
     <feFlood flood-color="#ccff90" result="bg"/>
     <feMerge>
      <feMergeNode in="bg"/>
      <feMergeNode in="SourceGraphic"/>
     </feMerge>
    </filter>
   </defs>
   <text filter="url(#solid)" font-family="Microsoft YaHei" font-size="10.00" text-anchor="middle" x="780.0" y="-355.0">
    单调栈
   </text>
  </g>
  <g class="key">
   <defs>
    <filter height="1.2" id="solid" width="1.2" x="-0.1" y="-0.1">
     <feFlood flood-color="#ccff90" result="bg"/>
     <feMerge>
      <feMergeNode in="bg"/>
      <feMergeNode in="SourceGraphic"/>
     </feMerge>
    </filter>
   </defs>
   <text filter="url(#solid)" font-family="Microsoft YaHei" font-size="10.00" text-anchor="middle" x="780.0" y="-283.0">
    插入排序
   </text>
  </g>
  <g class="key">
   <defs>
    <filter height="1.2" id="solid" width="1.2" x="-0.1" y="-0.1">
     <feFlood flood-color="#ccff90" result="bg"/>
     <feMerge>
      <feMergeNode in="bg"/>
      <feMergeNode in="SourceGraphic"/>
     </feMerge>
    </filter>
   </defs>
   <text filter="url(#solid)" font-family="Microsoft YaHei" font-size="10.00" text-anchor="middle" x="780.0" y="-211.0">
    归并排序
   </text>
  </g>
  <g class="key">
   <defs>
    <filter height="1.2" id="solid" width="1.2" x="-0.1" y="-0.1">
     <feFlood flood-color="#ccff90" result="bg"/>
     <feMerge>
      <feMergeNode in="bg"/>
      <feMergeNode in="SourceGraphic"/>
     </feMerge>
    </filter>
   </defs>
   <text filter="url(#solid)" font-family="Microsoft YaHei" font-size="10.00" text-anchor="middle" x="780.0" y="-139.0">
    map映射
   </text>
  </g>
 </g>
</svg>