<?xml version="1.0" encoding="utf-8"?>
<!DOCTYPE svg PUBLIC "-//W3C//DTD SVG 1.1//EN" "http://www.w3.org/Graphics/SVG/1.1/DTD/svg11.dtd">
<!-- Generated by graphviz version 5.0.0 (20220707.1540)
 -->
<!-- Title: stones Pages: 1 -->
<svg height="382pt" viewBox="0.00 0.00 194.0 382.0" width="194pt" xmlns="http://www.w3.org/2000/svg" xmlns:xlink="http://www.w3.org/1999/xlink">
 <g class="graph" id="graph0" transform="scale(1 1) rotate(0) translate(4 328)">
  <title>
   stones
  </title>
  <polygon fill="white" points="-4,4 -4,-328 140,-328 140,4 -4,4" stroke="transparent"/>
  <!-- Leetcode&#45;并查集 -->
  <g class="node" id="node1">
   <title>
    Leetcode-并查集
   </title>
   <g id="a_node1">
    <a target="_parent" xlink:href="https://leetcode-cn.com/tag/union-find" xlink:title="Leetcode-并查集(3)">
     <polygon fill="orangered" points="136,-324 0,-324 0,-288 136,-288 136,-324" stroke="lightgrey"/>
     <text fill="white" font-family="Microsoft YaHei" font-size="14.00" text-anchor="middle" x="68" y="-302.3">
      Leetcode-并查集(3)
     </text>
    </a>
   </g>
  </g>
  <!-- 并查集与搜索 -->
  <g class="node" id="node2">
   <title>
    并查集与搜索
   </title>
   <polygon fill="lightslategray" points="119.5,-252 16.5,-252 16.5,-216 119.5,-216 119.5,-252" stroke="lightgrey"/>
   <text fill="white" font-family="Microsoft YaHei" font-size="12.00" text-anchor="middle" x="68" y="-230.9">
    并查集与搜索(3)
   </text>
  </g>
  <!-- Leetcode&#45;并查集&#45;&gt;并查集与搜索 -->
  <g class="edge" id="edge1">
   <title>
    Leetcode-并查集-&gt;并查集与搜索
   </title>
   <path d="M68,-287.7C68,-279.98 68,-270.71 68,-262.11" fill="none" stroke="lightgrey"/>
   <polygon fill="lightgrey" points="71.5,-262.1 68,-252.1 64.5,-262.1 71.5,-262.1" stroke="lightgrey"/>
  </g>
  <!-- 130 -->
  <g class="node" id="node3">
   <title>
    130
   </title>
   <g id="a_node3">
    <a target="_parent" xlink:href="https://leetcode-cn.com/problems/surrounded-regions" xlink:title="130. 被围绕的区域">
     <polygon fill="none" points="125.5,-180 10.5,-180 10.5,-144 125.5,-144 125.5,-180" stroke="orange"/>
     <text font-family="Microsoft YaHei" font-size="12.00" text-anchor="middle" x="68" y="-158.9">
      130. 被围绕的区域
     </text>
    </a>
   </g>
  </g>
  <!-- 并查集与搜索&#45;&gt;130 -->
  <g class="edge" id="edge2">
   <title>
    并查集与搜索-&gt;130
   </title>
   <path d="M68,-215.7C68,-207.98 68,-198.71 68,-190.11" fill="none" stroke="lightgrey"/>
   <polygon fill="lightgrey" points="71.5,-190.1 68,-180.1 64.5,-190.1 71.5,-190.1" stroke="lightgrey"/>
  </g>
  <!-- 200 -->
  <g class="node" id="node4">
   <title>
    200
   </title>
   <g id="a_node4">
    <a target="_parent" xlink:href="https://leetcode-cn.com/problems/number-of-islands" xlink:title="200. 岛屿数量">
     <polygon fill="none" points="113.5,-108 22.5,-108 22.5,-72 113.5,-72 113.5,-108" stroke="orange"/>
     <text font-family="Microsoft YaHei" font-size="12.00" text-anchor="middle" x="68" y="-86.9">
      200. 岛屿数量
     </text>
    </a>
   </g>
  </g>
  <!-- 130&#45;&gt;200 -->
  <g class="edge" id="edge3">
   <title>
    130-&gt;200
   </title>
   <path d="M68,-143.7C68,-135.98 68,-126.71 68,-118.11" fill="none" stroke="lightgrey"/>
   <polygon fill="lightgrey" points="71.5,-118.1 68,-108.1 64.5,-118.1 71.5,-118.1" stroke="lightgrey"/>
  </g>
  <!-- 547 -->
  <g class="node" id="node5">
   <title>
    547
   </title>
   <g id="a_node5">
    <a target="_parent" xlink:href="https://leetcode-cn.com/problems/number-of-provinces" xlink:title="547. 省份数量">
     <polygon fill="none" points="113.5,-36 22.5,-36 22.5,0 113.5,0 113.5,-36" stroke="orange"/>
     <text font-family="Microsoft YaHei" font-size="12.00" text-anchor="middle" x="68" y="-14.9">
      547. 省份数量
     </text>
    </a>
   </g>
  </g>
  <!-- 200&#45;&gt;547 -->
  <g class="edge" id="edge4">
   <title>
    200-&gt;547
   </title>
   <path d="M68,-71.7C68,-63.98 68,-54.71 68,-46.11" fill="none" stroke="lightgrey"/>
   <polygon fill="lightgrey" points="71.5,-46.1 68,-36.1 64.5,-46.1 71.5,-46.1" stroke="lightgrey"/>
  </g>
  <g class="key">
   <defs>
    <filter height="1.2" id="solid" width="1.2" x="-0.1" y="-0.1">
     <feFlood flood-color="#ccff90" result="bg"/>
     <feMerge>
      <feMergeNode in="bg"/>
      <feMergeNode in="SourceGraphic"/>
     </feMerge>
    </filter>
   </defs>
   <text filter="url(#solid)" font-family="Microsoft YaHei" font-size="10.00" text-anchor="middle" x="68.0" y="5.0">
    基本题
   </text>
  </g>
 </g>
</svg>